<svg id="Capa_1" data-name="Capa 1" xmlns="http://www.w3.org/2000/svg" viewBox="0 0 512.01 512.01"><defs><style>.cls-1{fill:#330;}.cls-2{fill:#5c4346;}.cls-3{fill:#ffdea9;}.cls-4{fill:#a66856;}.cls-5{fill:#735458;}</style></defs><title>Artboard 1akostika-favico</title><circle class="cls-1" cx="173.51" cy="338.5" r="166"/><path class="cls-2" d="M290.89,221.12a165.66,165.66,0,0,0-132.38-47.93,166,166,0,0,1,0,330.63,166,166,0,0,0,132.38-282.7Z"/><circle class="cls-3" cx="173.51" cy="338.5" r="135.59"/><polygon class="cls-4" points="240.59 302.88 209.24 271.55 419.99 60.92 451.34 92.25 240.59 302.88"/><path class="cls-5" d="M504.32,41.39a2.07,2.07,0,0,1-.15.25L479.45,75.87a1.7,1.7,0,0,1-1.27.68,11.79,11.79,0,0,0-8.16,3.9l-23.47,28.29c-.85,1.21-3.12.77-4.82-.95l-19.52-19.5L404.43,70.53c-1.7-1.71-2.16-4-1-4.83l28.4-23.52a11.48,11.48,0,0,0,3.83-8.09,1.7,1.7,0,0,1,.66-1.26l34-25c1.05-.78,3-.21,4.52,1.29l8.6,8.61,19.41,19.4C504.26,38.54,504.83,40.3,504.32,41.39Z"/><path class="cls-2" d="M504.32,41.39a2.07,2.07,0,0,1-.15.25L479.44,75.87a1.67,1.67,0,0,1-1.26.68,11.79,11.79,0,0,0-8.16,3.9l-23.47,28.29c-.86,1.21-3.12.77-4.83-.95l-19.51-19.5h0c1.71,1.72,4,2.16,4.83.95L450.52,61a11.79,11.79,0,0,1,8.16-3.9,1.67,1.67,0,0,0,1.26-.68l24.73-34.23c.74-1,.21-2.91-1.22-4.39l19.41,19.4C504.26,38.54,504.83,40.3,504.32,41.39Z"/><path d="M387.21,166.94a7.5,7.5,0,0,0-9.93-11.21L356.51,135l21.24-21.22,20.82,20.82A7.49,7.49,0,0,0,410,144.14h0s0,0,0,0,0,0,0,0l29-29a11.62,11.62,0,0,0,6,1.78l.85,0a9.22,9.22,0,0,0,6.53-3.49l7.85-9.47,6.23,6.23A7.5,7.5,0,0,0,477.1,99.57l-7.22-7.21,5.9-7.11A4.87,4.87,0,0,1,478.89,84a9.17,9.17,0,0,0,6.62-3.75l6.85-9.48,6.77,6.77a7.5,7.5,0,1,0,10.6-10.62l-8.47-8.47,9-12.45c3-4.13,2.11-10-2.1-14.17l-28-28c-4.2-4.21-10.22-5-14.24-2l-12.29,9-8.31-8.3a7.5,7.5,0,1,0-10.6,10.61l6.68,6.68-9.48,7a9.21,9.21,0,0,0-3.68,6.66,4.57,4.57,0,0,1-1.15,3l-7.19,6-7.21-7.21A7.5,7.5,0,0,0,402,45.76L408.26,52l-9.52,7.88a9.27,9.27,0,0,0-3.44,6.58,11.45,11.45,0,0,0,1.75,6.79L372.48,97.78l0,0,0,0-98.93,98.88a173.59,173.59,0,0,0-108.39-31.52,7.5,7.5,0,1,0,.72,15,158.57,158.57,0,0,1,96.88,27.3l-11.12,11.12a141,141,0,0,0-16.2-9.11,7.49,7.49,0,0,0-13.46-5.62,143.56,143.56,0,0,0-41.75-8.29,7.5,7.5,0,0,0-14.7.06c-1,.05-2,.12-3,.2a143,143,0,0,0-36.81,7.8A7.49,7.49,0,0,0,112,209.34a143,143,0,0,0-35,23.51,7.49,7.49,0,0,0-10.46,10.6A142.08,142.08,0,0,0,44.3,276.92a7.49,7.49,0,0,0-5.71,13.82,143.56,143.56,0,0,0-8,41,7.5,7.5,0,0,0,.07,15,143.47,143.47,0,0,0,7.74,39.12,7.5,7.5,0,1,0,5.68,13.88,142.18,142.18,0,0,0,23,34.63,7.5,7.5,0,0,0,10.62,10.59,142.27,142.27,0,0,0,33,22.31,7.49,7.49,0,0,0,13.79,5.87,143.76,143.76,0,0,0,27.59,7c4.41.66,8.82,1.09,13.21,1.35a7.49,7.49,0,0,0,15,.1A141.63,141.63,0,0,0,219.64,474a7.48,7.48,0,0,0,6.72,4.22,7.39,7.39,0,0,0,2.82-.56,7.49,7.49,0,0,0,4.32-9.22c1.68-.78,3.35-1.58,5-2.43a7.5,7.5,0,0,0-6.82-13.36c-1.5.77-3,1.5-4.54,2.2a7.49,7.49,0,0,0-12.43,5,127.63,127.63,0,0,1-35.31,6.74,7.51,7.51,0,0,0-13.16-.07,127.36,127.36,0,0,1-36.87-7.61,7.5,7.5,0,0,0-11.87-5.08,128.22,128.22,0,0,1-29.94-20.26,7.48,7.48,0,0,0-9.13-9.1A127.21,127.21,0,0,1,57.51,393a7.48,7.48,0,0,0-4.85-11.87,128.37,128.37,0,0,1-7-35.51,7.49,7.49,0,0,0-.07-13,128.61,128.61,0,0,1,7.17-36.9,7.47,7.47,0,0,0,5.09-12.33A127.2,127.2,0,0,1,77.58,253.6a7.46,7.46,0,0,0,7.92-1.72,7.5,7.5,0,0,0,1.68-8A128.25,128.25,0,0,1,118,223.06a7.5,7.5,0,0,0,5.4,2.32,7.65,7.65,0,0,0,2.83-.55,7.5,7.5,0,0,0,4.66-7.12,127.65,127.65,0,0,1,32.66-6.89l2.15-.14a7.5,7.5,0,0,0,14.18-.06,128.59,128.59,0,0,1,36.29,7.16,7.5,7.5,0,0,0,4.56,7.62,7.29,7.29,0,0,0,2.91.6,7.52,7.52,0,0,0,5.75-2.69,125.7,125.7,0,0,1,11.26,6.19l-36.79,36.78a7.5,7.5,0,0,0,0,10.61l31.35,31.34a7.5,7.5,0,0,0,10.61,0l36.75-36.74A125.91,125.91,0,0,1,289.36,284a7.51,7.51,0,0,0,4.76,13.31l.6,0a128.39,128.39,0,0,1,6.65,34.8,7.5,7.5,0,0,0-.06,14.18c-.05.75-.09,1.49-.15,2.24a127.73,127.73,0,0,1-7.42,34.06,7.5,7.5,0,0,0-5.51,12.83,128,128,0,0,1-20.09,29.42,7.49,7.49,0,0,0-9.75,9.6c-.39.35-.78.71-1.18,1.05A7.5,7.5,0,0,0,267,446.81c.5-.43,1-.89,1.49-1.34A7.5,7.5,0,0,0,279.15,435a143.25,143.25,0,0,0,22.74-33.38,7.49,7.49,0,0,0,5.82-13.6,143.06,143.06,0,0,0,8.41-38.36c.08-1,.15-2.08.2-3.12a7.5,7.5,0,0,0,.06-14.7,143.45,143.45,0,0,0-7.7-40.08,7.5,7.5,0,0,0-5.46-13.54,142.71,142.71,0,0,0-9.74-17.61l11.13-11.12a158.56,158.56,0,0,1-19.08,201.15c-61.8,61.81-162.37,61.81-224.18,0s-61.81-162.38,0-224.19a158.26,158.26,0,0,1,73.41-41.67,7.5,7.5,0,1,0-3.65-14.55,173.28,173.28,0,0,0-80.37,45.61c-67.65,67.66-67.65,177.75,0,245.41A173.54,173.54,0,0,0,315.39,238.72l71.82-71.78m-73.67,52.42L292.8,198.62,314,177.39l20.74,20.74Zm-73,73L219.8,271.58l62.39-62.35h0L302.93,230Zm126.09-126-21.24,21.23-20.73-20.74,21.24-21.23Zm40.75-82.19,20.74,20.73-19,19-20.73-20.74Zm67.41-14.62a18.36,18.36,0,0,0-10.56,6.18l-20,24.08h0s0,0,0,0h0L412.46,68h0l24.16-20a18.45,18.45,0,0,0,6.14-10.54l28.66-21.08,24.25,24.24Z"/><path d="M127.18,344.84a7.5,7.5,0,1,0-10.6,10.61l40.06,40a7.5,7.5,0,1,0,10.6-10.61Z"/></svg>